# ProBuilder 4.0.5
# https://unity3d.com/unity/features/worldbuilding/probuilder
# 12/10/2021 4:44:49 PM

mtllib ./Arrow.mtl
o Arrow

g Model
v -64.15855 10.06112 -4.371
v -64.28146 10.06112 -4.371
v -64.15855 10.06112 -4.471
v -64.28146 10.06112 -4.471
v -64.095 9.706819 -4.371
v -64.22 9.458882 -4.371
v -64.345 9.706819 -4.371
v -64.345 9.708882 -4.371
v -64.095 9.708882 -4.371
v -64.345 9.706819 -4.421
v -64.345 9.706819 -4.471
v -64.345 9.708882 -4.471
v -64.22 9.458882 -4.471
v -64.095 9.706819 -4.471
v -64.095 9.708882 -4.471
v -64.095 9.706819 -4.421
v -64.22 9.458882 -4.421
v -64.15855 9.708882 -4.371
v -64.28146 9.708882 -4.371
v -64.15855 9.708882 -4.471
v -64.28146 9.708882 -4.471

vt -0.06145477 0.05000019
vt 0.06145477 0.05000019
vt -0.06145477 -0.04999971
vt 0.06145477 -0.04999971
vt 0.125 -0.05318165
vt 0 -0.3011179
vt -0.125 -0.05318165
vt -0.125 -0.0511179
vt 0.125 -0.0511179
vt 0.05000019 -0.05318165
vt 0 -0.05318165
vt -0.04999971 -0.05318165
vt -0.04999981 -0.0511179
vt 0.05000019 -0.0511179
vt 0.04999971 -0.05318165
vt -0.05000019 -0.05318165
vt -0.05000019 -0.0511179
vt 0.04999981 -0.0511179
vt 0.125 -0.04999971
vt 0 -0.04999981
vt 0 1.858726E-07
vt 0.125 -7.271496E-10
vt -0.125 -0.04999971
vt -0.125 -7.271496E-10
vt -0.125 0.05000019
vt 0 0.05000019
vt 0.125 0.05000019
vt 0.06145477 -0.0511179
vt -0.06145477 -0.0511179
vt 0.06145477 0.3011179
vt -0.06145477 0.3011179
vt 0.04999971 0.3011179
vt -0.05000019 0.3011179
vt 0.05000019 0.3011179
vt -0.04999971 0.3011179

vn 0 1 0
vn 0 0 1
vn -1 0 0
vn -9.386553E-05 -4.693276E-05 -1
vn 1 0 0
vn 0.8929358 -0.4501841 0
vn -0.8929358 -0.4501841 0
vn 0 0 0

g Model
usemtl Green
f 8/8/2 7/7/2 6/6/2
f 6/6/2 5/5/2 9/9/2
f 8/8/2 6/6/2 9/9/2
f 12/13/3 11/12/3 10/11/3
f 10/11/3 7/10/3 8/14/3
f 12/13/3 10/11/3 8/14/3
f 15/8/4 13/6/4 12/9/4
f 15/8/4 14/7/4 13/6/4
f 13/6/4 11/5/4 12/9/4
f 9/17/5 16/11/5 15/18/5
f 9/17/5 5/16/5 16/11/5
f 16/11/5 14/15/5 15/18/5
f 10/24/7 11/23/7 17/21/7
f 11/23/7 13/20/7 17/21/7
f 7/25/7 10/24/7 6/26/7
f 10/24/7 17/21/7 6/26/7
f 17/21/6 13/20/6 16/22/6
f 13/20/6 14/19/6 16/22/6
f 6/26/6 17/21/6 5/27/6
f 17/21/6 16/22/6 5/27/6
f 4/4/1 2/2/1 1/1/1
f 1/1/1 3/3/1 4/4/1
f 19/21/8 8/21/8 9/21/8
f 9/21/8 18/21/8 19/21/8
f 18/1/1 9/25/1 15/23/1
f 15/23/1 20/3/1 18/1/1
f 21/4/1 12/19/1 8/27/1
f 8/27/1 19/2/1 21/4/1
f 20/21/8 15/21/8 12/21/8
f 12/21/8 21/21/8 20/21/8
f 2/31/2 19/29/2 18/28/2
f 18/28/2 1/30/2 2/31/2
f 1/33/5 18/17/5 20/18/5
f 20/18/5 3/32/5 1/33/5
f 4/35/3 21/13/3 19/14/3
f 19/14/3 2/34/3 4/35/3
f 3/31/4 20/29/4 21/28/4
f 21/28/4 4/30/4 3/31/4

